# xmcd
#
# Track frame offsets: 
#        150
#        12733
#        23190
#        37384
#        57155
#        70610
#        87761
#        101496
#        113421
#        123023
#        139328
#        153529
#        162914
#        178424
#        190997
#        201529
#        212010
#        225892
#        235064
#        245297
#        256817
#        268770
#
# Disc length: 3741 seconds
#
# Revision: 2
# Processed by: cddbd v1.5.1PL2 Copyright (c) Steve Scherf et al.
# Submitted via: ExactAudioCopy v0.95b4
#
DISCID=320e9b16
DTITLE=Various Artist - Hvìzdy americké country CD 4
DYEAR=2000
DGENRE=Country
TTITLE0=Frank Saunders - Home on the Range
TTITLE1=Bobby Sykes and Lou Darnell - Bouquet of Roses
TTITLE2=Lee Greenwood - Dixie Road
TTITLE3=Marty Robbins - El Paso
TTITLE4=Johnny Cash and June Carter - If I Were a Carpenter
TTITLE5=Ray Price - For the Good Times
TTITLE6=Gene Martin - Roll along Kentucky Moon
TTITLE7=The Jordanaires - Crying in the Chapel
TTITLE8=Bobby Sykes - Tennessee Waltz
TTITLE9=Mickey Gilley - Stand by Me
TTITLE10=The Cattlemen - Red River Valley
TTITLE11=The Cattlemen - The Yellow Rose of Texas
TTITLE12=The Cattlemen - Cool Water
TTITLE13=The Cattlemen - Tumbling Tumbleweeds
TTITLE14=Frank Saunders - Clementine
TTITLE15=Paul Clayton - The Rovin' Gambler
TTITLE16=The Larry Sinclair Singers - Ghost Riders in the Sky
TTITLE17=Frank Saunders - Oh, Susanna
TTITLE18=The Cattlemen - Whoopee to yi yo
TTITLE19=Paul Clayton - In the Pines
TTITLE20=The Cattlemen - A Cowboy's Dream
TTITLE21=The Cattlemen - When the Work's All Done This Fall
EXTD=
EXTT0=
EXTT1=
EXTT2=
EXTT3=
EXTT4=
EXTT5=
EXTT6=
EXTT7=
EXTT8=
EXTT9=
EXTT10=
EXTT11=
EXTT12=
EXTT13=
EXTT14=
EXTT15=
EXTT16=
EXTT17=
EXTT18=
EXTT19=
EXTT20=
EXTT21=
PLAYORDER=
